<svg xmlns="http://www.w3.org/2000/svg" xmlns:xlink="http://www.w3.org/1999/xlink" width="20" height="17" viewBox="0 0 20 17">
  <defs>
    <clipPath id="clip-path">
      <path id="Clip_2" data-name="Clip 2" d="M0,0H-20V17H0Z" fill="none"/>
    </clipPath>
  </defs>
  <g id="Group_3" data-name="Group 3" transform="translate(20)">
    <path id="Clip_2-2" data-name="Clip 2" d="M0,0H-20V17H0Z" fill="none"/>
    <g id="Group_3-2" data-name="Group 3" clip-path="url(#clip-path)">
      <path id="Fill_1" data-name="Fill 1" d="M0,2.142v-.5a4.446,4.446,0,0,0-.218-.61,1.93,1.93,0,0,0-2.5-.873c-.777.31-1.549.631-2.323.947L-18.7,6.689a1.839,1.839,0,0,0-.944.712A6.518,6.518,0,0,0-20,8.222V8.76a.176.176,0,0,1,.029.049,1.949,1.949,0,0,0,1.307,1.5Q-12,13.023-5.345,15.751c.942.385,1.877.788,2.833,1.135A1.811,1.811,0,0,0-.6,16.456,2.076,2.076,0,0,0,0,15.34v-.5c-.008-.01-.02-.019-.023-.03q-.4-1.573-.8-3.146c-.221-.861-.447-1.722-.674-2.6H-8.354c-.072,0-.143,0-.215,0a.572.572,0,0,1-.541-.593.582.582,0,0,1,.658-.558H-1.5c.02-.062.037-.11.05-.159Q-1,6-.546,4.239q.271-1.049.546-2.1" transform="translate(0 0)"/>
    </g>
  </g>
</svg>
